<?xml version="1.0" standalone="no"?>
<!DOCTYPE svg PUBLIC "-//W3C//DTD SVG 20010904//EN"
 "http://www.w3.org/TR/2001/REC-SVG-20010904/DTD/svg10.dtd">
<svg version="1.0" xmlns="http://www.w3.org/2000/svg"
 width="512.000000pt" height="140.000000pt" viewBox="0 0 512.000000 140.000000"
 preserveAspectRatio="xMidYMid meet">

<g transform="translate(0.000000,140.000000) scale(0.100000,-0.100000)"
fill="#000000" stroke="none">
<path d="M1370 1138 c-268 -94 -403 -357 -330 -642 64 -250 324 -414 576 -364
106 21 181 58 259 130 52 48 74 78 113 155 l47 96 0 131 0 131 -41 85 c-56
116 -138 198 -254 254 -82 39 -89 41 -195 44 -93 2 -120 -1 -175 -20z m286
-187 c57 -25 133 -103 164 -166 34 -69 36 -216 3 -287 -114 -247 -452 -255
-581 -13 -24 45 -27 60 -27 155 0 91 3 111 24 150 46 89 136 163 221 181 52
12 146 2 196 -20z"/>
<path d="M121 1036 c-8 -9 -10 -125 -9 -407 l3 -394 85 0 85 0 3 268 c1 147 6
267 10 267 5 0 89 -102 188 -227 98 -125 197 -247 218 -270 l39 -44 76 3 76 3
0 405 0 405 -85 0 -85 0 -3 -258 c-1 -146 -6 -257 -11 -255 -10 3 -82 91 -295
357 l-128 161 -78 0 c-53 0 -81 -4 -89 -14z"/>
<path d="M2175 1038 c-3 -7 -4 -191 -3 -408 l3 -395 73 -3 c46 -2 79 2 88 9
11 9 14 44 14 155 0 79 4 144 8 144 4 0 61 -61 127 -136 65 -74 130 -144 143
-155 21 -16 41 -19 128 -19 57 0 104 3 104 8 -1 4 -24 32 -53 64 -169 183
-217 239 -217 252 0 7 25 26 55 42 200 100 205 319 10 422 -49 26 -55 27 -262
30 -171 3 -214 1 -218 -10z m405 -163 c25 -24 30 -36 30 -76 0 -40 -4 -51 -30
-73 -37 -30 -73 -38 -160 -34 l-65 3 -3 94 c-1 52 0 101 3 109 4 12 24 14 100
10 88 -4 97 -6 125 -33z"/>
<path d="M2955 1038 c-3 -7 -4 -191 -3 -408 l3 -395 73 -3 c46 -2 79 2 88 9
11 9 14 60 14 270 0 145 4 259 9 259 5 0 16 -17 24 -37 8 -21 35 -81 60 -133
25 -52 71 -151 102 -220 31 -69 64 -131 73 -137 9 -7 39 -13 68 -13 29 0 56 5
61 13 6 6 40 77 76 157 36 80 88 194 116 253 28 60 51 113 51 118 0 5 5 9 10
9 6 0 10 -94 10 -263 0 -191 3 -266 12 -275 17 -17 142 -16 157 2 8 9 10 125
9 407 l-3 394 -117 3 c-112 3 -118 2 -132 -20 -13 -20 -142 -294 -183 -388
-40 -91 -67 -140 -77 -137 -6 2 -32 50 -58 108 -93 204 -153 335 -178 384
l-25 50 -118 3 c-88 2 -119 -1 -122 -10z"/>
<path d="M4442 1037 c-11 -12 -151 -299 -262 -532 -26 -55 -64 -135 -85 -178
-24 -50 -34 -82 -28 -88 6 -6 48 -9 94 -7 l84 3 45 92 c70 141 56 133 240 133
182 0 167 8 225 -120 21 -47 45 -91 53 -98 10 -7 47 -12 99 -12 79 0 83 1 83
23 0 12 -11 41 -24 64 -14 23 -28 53 -32 65 -3 13 -14 34 -24 48 -10 14 -21
36 -25 50 -4 14 -16 37 -26 52 -11 14 -19 31 -19 37 0 9 -100 221 -208 441
l-17 35 -81 3 c-59 2 -84 -1 -92 -11z m137 -313 c22 -52 41 -100 41 -105 0 -5
-40 -9 -90 -9 -104 0 -108 5 -66 88 13 26 32 64 41 85 10 20 21 37 25 37 4 0
26 -43 49 -96z"/>
</g>
</svg>
